<svg
                  id="line"
                  height="75"
                  viewBox="0 0 64 64"
                  width="75"
                  xmlns="http://www.w3.org/2000/svg"
                >
                  <g fill="#277399">
                    <path d="m39.377 33.663a5 5 0 1 0 -6.754 0 9.01 9.01 0 0 0 -5.623 8.337v4a1 1 0 0 0 1 1h16a1 1 0 0 0 1-1v-4a9.01 9.01 0 0 0 -5.623-8.337z"></path>
                    <path d="m18.757 22.171 8.536 8.536a1 1 0 0 0 1.414-1.414l-8.536-8.536a5 5 0 1 0 -1.414 1.414z"></path>
                    <path d="m56 33a5.009 5.009 0 0 0 -4.9 4h-4.1a1 1 0 0 0 0 2h4.1a5 5 0 1 0 4.9-6z"></path>
                    <path d="m56 53a4.969 4.969 0 0 0 -2.753.833l-5.54-5.54a1 1 0 0 0 -1.414 1.414l5.54 5.54a5 5 0 1 0 4.167-2.247z"></path>
                    <path d="m25 37h-4.1a5 5 0 1 0 0 2h4.1a1 1 0 0 0 0-2z"></path>
                    <path d="m24.293 48.293-5.54 5.54a5.015 5.015 0 1 0 1.414 1.414l5.54-5.54a1 1 0 0 0 -1.414-1.414z"></path>
                    <path d="m44.707 30.707 8.54-8.54a5.015 5.015 0 1 0 -1.414-1.414l-8.54 8.54a1 1 0 0 0 1.414 1.414z"></path>
                  </g>
                  <path
                    d="m26.687 22.42a11.374 11.374 0 0 0 5.967-10.069 11.218 11.218 0 0 0 -11.054-11.351 11.218 11.218 0 0 0 -11.054 11.351 11.394 11.394 0 0 0 5.978 10.073 18.62 18.62 0 0 0 -13.524 17.876v3.865a2.836 2.836 0 0 0 2.833 2.835h31.533a2.837 2.837 0 0 0 2.834-2.833v-3.867a18.558 18.558 0 0 0 -13.513-17.88zm-14.141-10.069a9.216 9.216 0 0 1 9.054-9.351 9.216 9.216 0 0 1 9.054 9.351 9.209 9.209 0 0 1 -9.054 9.349 9.216 9.216 0 0 1 -9.054-9.349zm25.654 31.816a.835.835 0 0 1 -.834.833h-31.533a.834.834 0 0 1 -.833-.833v-3.867a16.6 16.6 0 0 1 33.2 0z"
                    fill="#67256B"
                  ></path>
                </svg>