<?xml version="1.0" encoding="utf-8"?>
<!-- Generator: Adobe Illustrator 24.0.2, SVG Export Plug-In . SVG Version: 6.00 Build 0)  -->
<svg version="1.1" id="Layer_1" xmlns="http://www.w3.org/2000/svg" xmlns:xlink="http://www.w3.org/1999/xlink" x="0px" y="0px"
	 viewBox="0 0 1000 1000" style="enable-background:new 0 0 1000 1000;" xml:space="preserve">
<style type="text/css">
	.st0{fill:#FDE200;}
	.st1{fill:#113F88;}
</style>
<g>
	<g>
		<path class="st0" d="M559.45,419.51c-13.98-3.92-28.59-5.37-43.03-6.87c-14.49-1.35-29.02-2.11-43.51-2.3
			c-14.49-0.15-28.97,0.24-43.22,1.65c-14.18,1.37-28.41,4.12-40.73,9.23c-6.12,2.42-11.64,5.72-15.35,9.21
			c-1.8,1.78-3.14,3.53-3.93,5.38c-0.83,2.23-1.69,4.49-1.67,6.62c-1.05,8.38,7.6,20.08,18.59,28.19
			c11,8.44,23.91,15.11,37.07,21.01c13.24,5.82,26.94,10.88,41.03,14.65l-0.17,0.94c-14.58-1.8-29.01-4.93-43.26-8.95
			c-14.25-4.09-28.32-9.14-41.91-16.49c-6.76-3.75-13.49-8.03-19.56-14.14c-5.86-5.93-11.49-14.84-11.54-25.38
			c-0.24-5.24,1.28-10.07,3.03-14.61c2.21-4.82,5.47-8.94,9.1-12.03c7.31-6.21,15.43-8.99,23.1-11.16
			c15.57-3.77,30.63-4.31,45.55-4.64c14.92-0.17,29.69,0.71,44.35,2.14c14.66,1.46,29.23,3.51,43.68,6.13
			c14.4,2.77,28.88,5.48,42.69,10.67L559.45,419.51z"/>
		<path class="st0" d="M436.77,510.23c13.98,3.92,28.59,5.37,43.03,6.87c14.49,1.35,29.02,2.11,43.52,2.3
			c14.49,0.15,28.97-0.24,43.22-1.65c14.18-1.37,28.41-4.12,40.73-9.23c6.12-2.42,11.64-5.72,15.35-9.21
			c1.8-1.78,3.13-3.53,3.93-5.38c0.83-2.23,1.69-4.49,1.67-6.62c1.05-8.38-7.6-20.08-18.59-28.19c-11-8.44-23.91-15.11-37.07-21.01
			c-13.24-5.82-26.94-10.88-41.03-14.65l0.17-0.94c14.58,1.8,29.01,4.93,43.26,8.95c14.25,4.09,28.32,9.14,41.91,16.49
			c6.76,3.74,13.49,8.03,19.56,14.14c5.86,5.93,11.49,14.84,11.54,25.38c0.23,5.24-1.28,10.07-3.03,14.61
			c-2.21,4.82-5.47,8.94-9.1,12.03c-7.31,6.2-15.42,8.99-23.1,11.16c-15.57,3.77-30.63,4.31-45.55,4.64
			c-14.92,0.17-29.69-0.71-44.35-2.14c-14.66-1.46-29.23-3.51-43.68-6.13c-14.4-2.77-28.88-5.48-42.69-10.67L436.77,510.23z"/>
		<circle class="st1" cx="500.04" cy="466.99" r="17.23"/>
		<path class="st1" d="M547.38,537.98c-20.19,6.79-40.83,12.4-61.88,16.76c-21.07,4.49-42.57,7.15-65.03,7.27
			c-11.24,0.02-22.87-0.84-34.64-4.32c-11.58-3.42-24.33-9.05-33.88-19.82c-18.69-22.61-16.53-54.21-4.45-75.5
			c5.83-10.87,13.45-19.94,21.61-27.88c8.19-7.94,16.86-14.94,25.82-21.31c17.83-12.89,37.01-23.15,56.84-31.54
			c39.71-16.66,81.62-26.67,123.96-30.94l0.14,1.3c-42.11,4.98-83.35,17.54-120.55,37.1c-18.49,9.93-36.19,21.33-51.51,35.09
			c-15.31,13.6-27.44,30.94-32.81,48.29c-2.65,8.68-3.08,17.15-1.85,24.81c0.44,3.87,1.69,7.58,3.16,11.19
			c0.7,1.8,1.62,3.22,2.31,4.9l2.67,4.54c3.75,5.91,9.53,12.07,17.67,16.34c8.04,4.27,17.49,7.47,27.35,9.67
			c19.89,4.27,41.1,3.95,62.09,2.78c21.03-1.51,42.11-4.58,62.79-9.39L547.38,537.98z"/>
		<path class="st1" d="M449.69,397.88c20.15-6.71,40.74-12.26,61.73-16.58c21.01-4.45,42.43-7.11,64.81-7.27
			c11.2-0.05,22.76,0.72,34.5,4.08c11.54,3.31,24.27,8.73,33.93,19.35c19.09,22.31,16.97,54.13,4.81,75.32
			c-5.87,10.82-13.52,19.83-21.72,27.69c-8.22,7.85-16.89,14.79-25.88,21.08c-17.86,12.72-37.03,22.85-56.84,31.11
			c-39.67,16.42-81.47,26.25-123.69,30.47l-0.13-1.3c41.99-4.92,83.15-17.28,120.34-36.62c18.49-9.8,36.2-21.07,51.58-34.68
			c15.34-13.47,27.6-30.66,33.02-47.91c2.68-8.63,3.11-17.04,1.86-24.62c-0.45-3.84-1.74-7.5-3.2-11.08l-2.33-4.81
			c-0.99-1.43-1.72-3.01-2.74-4.46c-3.8-5.85-9.69-11.95-17.87-16.15c-8.08-4.21-17.56-7.31-27.41-9.48
			c-19.86-4.22-41.01-3.87-61.94-2.73c-20.97,1.49-41.99,4.5-62.63,9.24L449.69,397.88z"/>
	</g>
	<g>
		<path class="st1" d="M181.85,616.46h8.33v32.11h-8.33V616.46z"/>
		<path class="st1" d="M205.25,648.56h-8.33v-32.11h8.33l15.36,19.64v-19.64h8.33v32.11h-8.33l-15.36-19.64V648.56z"/>
		<path class="st1" d="M254.68,623.53h-6.93v25.03h-8.33v-25.03h-6.79v-7.08h22.05V623.53z"/>
		<path class="st1" d="M276.58,616.46v7.08h-9.92v5.34h9.39v7.08h-9.39v5.54h9.92v7.08h-18.24v-32.11H276.58z"/>
		<path class="st1" d="M297.28,636.87v-6.5h16.56c0,3.31-0.39,6.11-1.18,8.4c-0.79,2.29-2.11,4.31-3.97,6.04
			c-2.89,2.7-6.66,4.04-11.31,4.04c-5.1,0-9.21-1.59-12.32-4.77c-3.08-3.08-4.62-6.95-4.62-11.6c0-4.88,1.6-8.89,4.81-12.03
			c3.15-3.14,7.3-4.72,12.47-4.72c3.4,0,6.29,0.72,8.66,2.17c2.5,1.54,4.41,3.74,5.73,6.59l-7.94,3.27
			c-0.51-1.28-1.28-2.36-2.31-3.22c-1.28-1.06-2.78-1.59-4.48-1.59c-2.18,0-4.01,0.74-5.49,2.21c-1.86,1.86-2.79,4.32-2.79,7.36
			c0,2.82,0.85,5.13,2.55,6.93c1.54,1.64,3.5,2.46,5.87,2.46c1.89,0,3.43-0.5,4.62-1.49c1.06-0.87,1.72-2.05,1.97-3.56H297.28z"/>
		<path class="st1" d="M319.13,616.46h13c3.4,0,6.02,0.95,7.85,2.84c1.83,1.86,2.74,4.27,2.74,7.22c0,2.82-0.85,5.05-2.55,6.69
			c-1.19,1.12-2.66,1.86-4.43,2.21l10.06,13.14h-10.35l-7.99-12.32v12.32h-8.33V616.46z M327.46,622.91v7.94h1.59
			c1.8,0,3.15-0.43,4.04-1.3c0.71-0.71,1.06-1.6,1.06-2.7c0-1.12-0.37-2.02-1.11-2.7c-0.83-0.83-2.17-1.25-4-1.25H327.46z"/>
		<path class="st1" d="M370.88,648.56l-1.97-5.39h-11.65l-2.17,5.39h-8.81l12.32-32.11h9.1l12.08,32.11H370.88z M359.57,636.82h7.12
			l-3.61-10.4L359.57,636.82z"/>
		<path class="st1" d="M383.49,616.46h8.33v25.03h10.01v7.08h-18.34V616.46z"/>
		<path class="st0" d="M440.38,637.83v9.87c-2.92,1.06-5.33,1.59-7.22,1.59c-5.01,0-9.15-1.6-12.42-4.81
			c-1.54-1.54-2.74-3.34-3.59-5.42c-0.85-2.07-1.28-4.16-1.28-6.28c0-2.21,0.44-4.36,1.32-6.45c0.88-2.09,2.06-3.88,3.54-5.39
			c3.27-3.34,7.32-5.01,12.13-5.01c2.31,0,4.81,0.55,7.51,1.64v9.96c-1.89-2.34-4.32-3.51-7.27-3.51c-2.28,0-4.2,0.71-5.78,2.12
			c-1.86,1.73-2.79,3.93-2.79,6.59c0,2.54,0.87,4.62,2.6,6.26c1.57,1.48,3.56,2.21,5.97,2.21
			C435.91,641.2,438.33,640.08,440.38,637.83z"/>
		<path class="st0" d="M479.66,632.53c0,4.75-1.68,8.75-5.05,11.99c-3.34,3.18-7.56,4.76-12.66,4.76c-5.1,0-9.32-1.59-12.66-4.76
			c-3.37-3.24-5.05-7.24-5.05-11.99c0-2.21,0.43-4.38,1.28-6.5c0.85-2.12,2.11-3.96,3.78-5.54c3.34-3.18,7.56-4.77,12.66-4.77
			c5.1,0,9.32,1.59,12.66,4.77c1.67,1.57,2.93,3.42,3.78,5.54C479.24,628.15,479.66,630.32,479.66,632.53z M461.95,623.82
			c-2.63,0-4.8,0.85-6.5,2.55c-1.7,1.67-2.55,3.77-2.55,6.31c0,2.34,0.85,4.33,2.55,5.97c1.76,1.7,3.93,2.55,6.5,2.55
			c2.63,0,4.78-0.83,6.45-2.5c1.73-1.73,2.6-3.79,2.6-6.16c0-2.44-0.87-4.49-2.6-6.16C466.6,624.67,464.45,623.82,461.95,623.82z"/>
		<path class="st0" d="M491.17,648.56h-8.28l5.44-32.11h8.23l6.5,17.14l6.88-17.14h8.33l4.81,32.11h-8.33l-2.36-18.48l-7.75,18.48
			h-3.32l-7.41-18.48L491.17,648.56z"/>
		<path class="st0" d="M535.21,648.56h-8.28l5.44-32.11h8.23l6.5,17.14l6.88-17.14h8.33l4.81,32.11h-8.33l-2.36-18.48l-7.75,18.48
			h-3.32l-7.41-18.48L535.21,648.56z"/>
		<path class="st0" d="M606.4,632.53c0,4.75-1.69,8.75-5.05,11.99c-3.34,3.18-7.56,4.76-12.66,4.76c-5.1,0-9.32-1.59-12.66-4.76
			c-3.37-3.24-5.05-7.24-5.05-11.99c0-2.21,0.42-4.38,1.28-6.5c0.85-2.12,2.11-3.96,3.78-5.54c3.34-3.18,7.56-4.77,12.66-4.77
			c5.1,0,9.32,1.59,12.66,4.77c1.67,1.57,2.93,3.42,3.78,5.54S606.4,630.32,606.4,632.53z M588.69,623.82c-2.63,0-4.8,0.85-6.5,2.55
			c-1.7,1.67-2.55,3.77-2.55,6.31c0,2.34,0.85,4.33,2.55,5.97c1.76,1.7,3.93,2.55,6.5,2.55c2.63,0,4.78-0.83,6.45-2.5
			c1.73-1.73,2.6-3.79,2.6-6.16c0-2.44-0.87-4.49-2.6-6.16C593.34,624.67,591.19,623.82,588.69,623.82z"/>
		<path class="st0" d="M623.35,648.56H611.7v-32.11h10.93c5.46,0,9.71,1.48,12.76,4.43c2.98,2.86,4.48,6.76,4.48,11.7
			c0,4.62-1.4,8.33-4.19,11.12c-1.41,1.41-3.18,2.58-5.29,3.49C628.26,648.11,625.91,648.56,623.35,648.56z M620.03,623.53v17.95
			h1.68c3.11,0,5.46-0.77,7.03-2.31c1.64-1.57,2.46-3.77,2.46-6.59c0-3.11-0.83-5.46-2.5-7.03c-1.44-1.35-3.66-2.02-6.64-2.02
			H620.03z"/>
		<path class="st0" d="M645.15,616.46h8.33v32.11h-8.33V616.46z"/>
		<path class="st0" d="M679.23,623.53h-6.93v25.03h-8.33v-25.03h-6.79v-7.08h22.05V623.53z"/>
		<path class="st0" d="M682.89,616.46h8.33v32.11h-8.33V616.46z"/>
		<path class="st0" d="M716.2,616.46v7.08h-9.92v5.34h9.39v7.08h-9.39v5.54h9.92v7.08h-18.24v-32.11H716.2z"/>
		<path class="st0" d="M720.05,645.68l3.56-6.74c2.31,2.18,4.77,3.27,7.37,3.27c1.48,0,2.55-0.37,3.22-1.11
			c0.54-0.54,0.82-1.22,0.82-2.02c0-0.77-0.31-1.41-0.91-1.93c-0.51-0.45-1.89-1.01-4.14-1.68l-2.17-0.67
			c-2.15-0.67-3.69-1.54-4.62-2.6c-1.22-1.32-1.83-3.21-1.83-5.68c0-3.21,0.98-5.79,2.94-7.75c2.02-2.02,4.77-3.03,8.23-3.03
			c3.3,0,6.61,0.87,9.92,2.6l-3.32,6.5c-1.83-1.44-3.66-2.17-5.49-2.17c-1.16,0-2.07,0.32-2.74,0.96c-0.55,0.55-0.82,1.12-0.82,1.73
			c0,0.58,0.14,1.06,0.43,1.44c0.45,0.55,1.38,1.03,2.79,1.44l2.55,0.77c2.7,0.83,4.64,1.89,5.82,3.18
			c1.38,1.48,2.07,3.39,2.07,5.73c0,3.37-1.01,6.06-3.03,8.09c-2.18,2.18-5.34,3.27-9.48,3.27c-2.28,0-4.38-0.35-6.31-1.06
			C723.27,647.65,721.65,646.8,720.05,645.68z"/>
		<path class="st0" d="M758.75,645.68l3.56-6.74c2.31,2.18,4.77,3.27,7.37,3.27c1.48,0,2.55-0.37,3.22-1.11
			c0.54-0.54,0.82-1.22,0.82-2.02c0-0.77-0.31-1.41-0.91-1.93c-0.51-0.45-1.89-1.01-4.14-1.68l-2.17-0.67
			c-2.15-0.67-3.69-1.54-4.62-2.6c-1.22-1.32-1.83-3.21-1.83-5.68c0-3.21,0.98-5.79,2.94-7.75c2.02-2.02,4.77-3.03,8.23-3.03
			c3.3,0,6.61,0.87,9.92,2.6l-3.32,6.5c-1.83-1.44-3.66-2.17-5.49-2.17c-1.16,0-2.07,0.32-2.74,0.96c-0.55,0.55-0.82,1.12-0.82,1.73
			c0,0.58,0.14,1.06,0.43,1.44c0.45,0.55,1.38,1.03,2.79,1.44l2.55,0.77c2.7,0.83,4.64,1.89,5.82,3.18
			c1.38,1.48,2.07,3.39,2.07,5.73c0,3.37-1.01,6.06-3.03,8.09c-2.18,2.18-5.34,3.27-9.48,3.27c-2.28,0-4.38-0.35-6.31-1.06
			C761.97,647.65,760.35,646.8,758.75,645.68z"/>
		<path class="st0" d="M809.24,648.56l-1.97-5.39h-11.65l-2.17,5.39h-8.81l12.32-32.11h9.1l12.08,32.11H809.24z M797.93,636.82h7.12
			l-3.61-10.4L797.93,636.82z"/>
	</g>
</g>
</svg>
