<svg
                  height="50"
                  viewBox="0 0 64 64"
                  width="50"
                  xmlns="http://www.w3.org/2000/svg"
                >
                  <g id="line">
                    <path
                      d="m50.95 37a12.865 12.865 0 0 1 -9.157-3.793 10.879 10.879 0 0 0 -7.743-3.207h-21.05v22a3 3 0 0 0 3 3h44a3 3 0 0 0 3-3v-15zm-12.95 12h-19a1 1 0 0 1 0-2h19a1 1 0 0 1 0 2z"
                      fill="#00aa8d3d"
                    ></path>
                    <path
                      d="m34.05 28a12.865 12.865 0 0 1 9.157 3.793 10.879 10.879 0 0 0 7.743 3.207h12.05v-11a3 3 0 0 0 -3-3h-44a3 3 0 0 0 -3 3v4z"
                      fill="#00aa8d3d"
                    ></path>
                    <g fill="#00AA8D">
                      <path d="m48.044 9h-44a3 3 0 0 0 -3 3c0 10.764-.1 10 0 10v18a3 3 0 0 0 3 3h44a3 3 0 0 0 3-3v-28a3 3 0 0 0 -3-3zm-44 2h44a1 1 0 0 1 1 1v3h-46v-3a1 1 0 0 1 1-1zm45 10h-46v-4h46zm-1 20h-44a1 1 0 0 1 -1-1v-17h46v17a1 1 0 0 1 -1 1z"></path>
                      <path d="m28.044 33h-18a1 1 0 1 0 0 2h18a1 1 0 0 0 0-2z"></path>
                      <path d="m40.044 30h-4a3 3 0 0 0 -3 3v2a3 3 0 0 0 3 3h4a3 3 0 0 0 3-3v-2a3 3 0 0 0 -3-3zm1 5a1 1 0 0 1 -1 1h-4a1 1 0 0 1 -1-1v-2a1 1 0 0 1 1-1h4a1 1 0 0 1 1 1z"></path>
                    </g>
                  </g>
                </svg>